<svg width="512" height="512" viewBox="0 0 512 512" xmlns="http://www.w3.org/2000/svg">
  <defs>
    <radialGradient id="bg" cx="50%" cy="50%" r="50%">
      <stop offset="0%" stop-color="#0ea5e9"/>
      <stop offset="100%" stop-color="#0284c7"/>
    </radialGradient>
    <radialGradient id="body" cx="40%" cy="35%" r="65%">
      <stop offset="0%" stop-color="#bae6fd"/>
      <stop offset="50%" stop-color="#38bdf8"/>
      <stop offset="100%" stop-color="#0ea5e9"/>
    </radialGradient>
  </defs>
  <rect width="512" height="512" rx="120" fill="url(#bg)"/>
  <!-- Flux body -->
  <ellipse cx="256" cy="290" rx="145" ry="155" fill="url(#body)" opacity="0.95"/>
  <!-- Shimmer -->
  <ellipse cx="210" cy="240" rx="35" ry="22" fill="white" opacity="0.25" transform="rotate(-20,210,240)"/>
  <!-- Eyes -->
  <ellipse cx="220" cy="268" rx="30" ry="34" fill="white" opacity="0.95"/>
  <ellipse cx="292" cy="268" rx="30" ry="34" fill="white" opacity="0.95"/>
  <circle cx="224" cy="272" r="17" fill="#0369a1"/>
  <circle cx="296" cy="272" r="17" fill="#0369a1"/>
  <circle cx="230" cy="265" r="7" fill="white"/>
  <circle cx="302" cy="265" r="7" fill="white"/>
  <!-- Smile -->
  <path d="M220 318 Q256 345 292 318" fill="none" stroke="#0369a1" stroke-width="10" stroke-linecap="round"/>
  <!-- Antennae -->
  <line x1="230" y1="138" x2="205" y2="98" stroke="#38bdf8" stroke-width="6" stroke-linecap="round"/>
  <circle cx="200" cy="90" r="12" fill="#bae6fd"/>
  <line x1="282" y1="138" x2="307" y2="98" stroke="#38bdf8" stroke-width="6" stroke-linecap="round"/>
  <circle cx="312" cy="90" r="12" fill="#bae6fd"/>
</svg>
